<?xml version="1.0" encoding="utf-8" standalone="no"?>
<!DOCTYPE svg PUBLIC "-//W3C//DTD SVG 1.1//EN"
  "http://www.w3.org/Graphics/SVG/1.1/DTD/svg11.dtd">
<svg xmlns:xlink="http://www.w3.org/1999/xlink" width="720pt" height="432pt" viewBox="0 0 720 432" xmlns="http://www.w3.org/2000/svg" version="1.1">
 <metadata>
  <rdf:RDF xmlns:dc="http://purl.org/dc/elements/1.1/" xmlns:cc="http://creativecommons.org/ns#" xmlns:rdf="http://www.w3.org/1999/02/22-rdf-syntax-ns#">
   <cc:Work>
    <dc:type rdf:resource="http://purl.org/dc/dcmitype/StillImage"/>
    <dc:date>2024-06-17T14:52:09.509900</dc:date>
    <dc:format>image/svg+xml</dc:format>
    <dc:creator>
     <cc:Agent>
      <dc:title>Matplotlib v3.5.1, https://matplotlib.org/</dc:title>
     </cc:Agent>
    </dc:creator>
   </cc:Work>
  </rdf:RDF>
 </metadata>
 <defs>
  <style type="text/css">*{stroke-linejoin: round; stroke-linecap: butt}</style>
 </defs>
 <g id="figure_1">
  <g id="patch_1">
   <path d="M 0 432 
L 720 432 
L 720 0 
L 0 0 
z
" style="fill: #ffffff"/>
  </g>
  <g id="axes_1">
   <g id="patch_2">
    <path d="M 90 384.48 
L 648 384.48 
L 648 51.84 
L 90 51.84 
z
" style="fill: #ffffff"/>
   </g>
   <g id="matplotlib.axis_1">
    <g id="xtick_1">
     <g id="line2d_1">
      <defs>
       <path id="m02e3d6316f" d="M 0 0 
L 0 3.5 
" style="stroke: #000000; stroke-width: 0.8"/>
      </defs>
      <g>
       <use xlink:href="#m02e3d6316f" x="115.363636" y="384.48" style="stroke: #000000; stroke-width: 0.8"/>
      </g>
     </g>
     <g id="text_1">
      <!-- 0 -->
      <g transform="translate(112.583168 398.658125)scale(0.1 -0.1)">
       <defs>
        <path id="Helvetica-30" d="M 1778 -122 
Q 1041 -122 639 478 
Q 238 1078 238 2188 
Q 238 3297 639 3898 
Q 1041 4500 1778 4500 
Q 2522 4500 2922 3898 
Q 3322 3297 3322 2188 
Q 3322 1078 2922 478 
Q 2522 -122 1778 -122 
L 1778 -122 
z
M 1778 384 
Q 2253 384 2490 834 
Q 2728 1284 2725 2188 
Q 2728 3091 2490 3542 
Q 2253 3994 1778 3994 
Q 1306 3994 1072 3542 
Q 838 3091 834 2188 
Q 838 1284 1072 834 
Q 1306 384 1778 384 
L 1778 384 
z
" transform="scale(0.015625)"/>
       </defs>
       <use xlink:href="#Helvetica-30"/>
      </g>
     </g>
    </g>
    <g id="xtick_2">
     <g id="line2d_2">
      <g>
       <use xlink:href="#m02e3d6316f" x="185.818182" y="384.48" style="stroke: #000000; stroke-width: 0.8"/>
      </g>
     </g>
     <g id="text_2">
      <!-- 50 -->
      <g transform="translate(180.257244 398.658125)scale(0.1 -0.1)">
       <defs>
        <path id="Helvetica-35" d="M 3291 1447 
Q 3291 756 2858 317 
Q 2425 -122 1747 -122 
Q 1072 -122 662 215 
Q 253 553 206 1147 
L 206 1147 
L 791 1147 
L 791 1147 
Q 838 772 1094 567 
Q 1350 363 1772 363 
Q 2178 363 2436 647 
Q 2694 931 2694 1378 
Q 2694 1847 2425 2123 
Q 2156 2400 1697 2400 
Q 1450 2400 1217 2281 
Q 984 2163 866 1978 
L 391 2009 
L 716 4409 
L 716 4409 
L 3047 4409 
L 3047 3863 
L 1138 3863 
L 1138 3863 
L 944 2631 
L 944 2631 
L 963 2644 
Q 1334 2900 1747 2900 
Q 2456 2900 2875 2506 
Q 3291 2116 3291 1447 
z
" transform="scale(0.015625)"/>
       </defs>
       <use xlink:href="#Helvetica-35"/>
       <use xlink:href="#Helvetica-30" x="55.615234"/>
      </g>
     </g>
    </g>
    <g id="xtick_3">
     <g id="line2d_3">
      <g>
       <use xlink:href="#m02e3d6316f" x="256.272727" y="384.48" style="stroke: #000000; stroke-width: 0.8"/>
      </g>
     </g>
     <g id="text_3">
      <!-- 100 -->
      <g transform="translate(247.931321 398.658125)scale(0.1 -0.1)">
       <defs>
        <path id="Helvetica-31" d="M 1700 0 
L 1700 3194 
L 1700 3194 
L 647 3194 
L 647 3644 
Q 1113 3634 1403 3844 
Q 1697 4056 1838 4500 
L 2297 4500 
L 2297 4500 
L 2297 0 
L 2297 0 
L 2000 0 
L 1700 0 
L 1700 0 
z
" transform="scale(0.015625)"/>
       </defs>
       <use xlink:href="#Helvetica-31"/>
       <use xlink:href="#Helvetica-30" x="55.615234"/>
       <use xlink:href="#Helvetica-30" x="111.230469"/>
      </g>
     </g>
    </g>
    <g id="xtick_4">
     <g id="line2d_4">
      <g>
       <use xlink:href="#m02e3d6316f" x="326.727273" y="384.48" style="stroke: #000000; stroke-width: 0.8"/>
      </g>
     </g>
     <g id="text_4">
      <!-- 150 -->
      <g transform="translate(318.385866 398.658125)scale(0.1 -0.1)">
       <use xlink:href="#Helvetica-31"/>
       <use xlink:href="#Helvetica-35" x="55.615234"/>
       <use xlink:href="#Helvetica-30" x="111.230469"/>
      </g>
     </g>
    </g>
    <g id="xtick_5">
     <g id="line2d_5">
      <g>
       <use xlink:href="#m02e3d6316f" x="397.181818" y="384.48" style="stroke: #000000; stroke-width: 0.8"/>
      </g>
     </g>
     <g id="text_5">
      <!-- 200 -->
      <g transform="translate(388.840412 398.658125)scale(0.1 -0.1)">
       <defs>
        <path id="Helvetica-32" d="M 3247 3175 
Q 3247 2678 2992 2358 
Q 2738 2038 2034 1650 
Q 1272 1231 994 884 
Q 878 734 803 547 
L 803 547 
L 3247 547 
L 3247 0 
L 166 0 
L 166 0 
Q 166 709 519 1161 
Q 872 1613 1844 2147 
Q 2316 2409 2487 2628 
Q 2659 2847 2659 3191 
Q 2659 3550 2403 3778 
Q 2147 4006 1747 4006 
Q 1328 4006 1089 3720 
Q 850 3434 834 2909 
L 834 2909 
L 288 2909 
L 288 2909 
Q 275 3653 684 4076 
Q 1094 4500 1825 4500 
Q 2450 4500 2850 4128 
Q 3247 3759 3247 3175 
z
" transform="scale(0.015625)"/>
       </defs>
       <use xlink:href="#Helvetica-32"/>
       <use xlink:href="#Helvetica-30" x="55.615234"/>
       <use xlink:href="#Helvetica-30" x="111.230469"/>
      </g>
     </g>
    </g>
    <g id="xtick_6">
     <g id="line2d_6">
      <g>
       <use xlink:href="#m02e3d6316f" x="467.636364" y="384.48" style="stroke: #000000; stroke-width: 0.8"/>
      </g>
     </g>
     <g id="text_6">
      <!-- 250 -->
      <g transform="translate(459.294957 398.658125)scale(0.1 -0.1)">
       <use xlink:href="#Helvetica-32"/>
       <use xlink:href="#Helvetica-35" x="55.615234"/>
       <use xlink:href="#Helvetica-30" x="111.230469"/>
      </g>
     </g>
    </g>
    <g id="xtick_7">
     <g id="line2d_7">
      <g>
       <use xlink:href="#m02e3d6316f" x="538.090909" y="384.48" style="stroke: #000000; stroke-width: 0.8"/>
      </g>
     </g>
     <g id="text_7">
      <!-- 300 -->
      <g transform="translate(529.749503 398.658125)scale(0.1 -0.1)">
       <defs>
        <path id="Helvetica-33" d="M 2600 3278 
Q 2600 3597 2358 3798 
Q 2116 4000 1738 4000 
Q 1338 4000 1125 3754 
Q 913 3509 891 3022 
L 891 3022 
L 344 3022 
L 344 3022 
Q 344 3728 714 4114 
Q 1084 4500 1763 4500 
Q 2403 4500 2795 4179 
Q 3188 3859 3188 3334 
Q 3188 2813 2794 2491 
Q 2719 2428 2631 2378 
L 2631 2378 
Q 2794 2306 2919 2206 
Q 3341 1875 3341 1313 
Q 3341 681 2903 279 
Q 2466 -122 1778 -122 
Q 1022 -122 637 242 
Q 253 606 219 1356 
L 219 1356 
L 809 1356 
L 809 1356 
Q 859 831 1087 604 
Q 1316 378 1797 378 
Q 2213 378 2478 617 
Q 2744 856 2744 1231 
Q 2744 1625 2488 1856 
Q 2269 2056 1925 2081 
Q 1766 2091 1623 2091 
Q 1481 2091 1434 2078 
L 1434 2572 
Q 1503 2556 1647 2556 
Q 1791 2556 1931 2575 
Q 2203 2609 2372 2753 
Q 2600 2941 2600 3278 
z
" transform="scale(0.015625)"/>
       </defs>
       <use xlink:href="#Helvetica-33"/>
       <use xlink:href="#Helvetica-30" x="55.615234"/>
       <use xlink:href="#Helvetica-30" x="111.230469"/>
      </g>
     </g>
    </g>
    <g id="xtick_8">
     <g id="line2d_8">
      <g>
       <use xlink:href="#m02e3d6316f" x="608.545455" y="384.48" style="stroke: #000000; stroke-width: 0.8"/>
      </g>
     </g>
     <g id="text_8">
      <!-- 350 -->
      <g transform="translate(600.204048 398.658125)scale(0.1 -0.1)">
       <use xlink:href="#Helvetica-33"/>
       <use xlink:href="#Helvetica-35" x="55.615234"/>
       <use xlink:href="#Helvetica-30" x="111.230469"/>
      </g>
     </g>
    </g>
    <g id="text_9">
     <!-- Rotation Angle (degrees) -->
     <g transform="translate(313.415625 412.058125)scale(0.1 -0.1)">
      <defs>
       <path id="Helvetica-52" d="M 563 0 
L 563 4594 
L 563 4594 
L 872 4594 
L 872 4594 
L 2700 4594 
Q 3431 4594 3812 4276 
Q 4194 3959 4194 3347 
Q 4194 2744 3797 2403 
Q 3697 2319 3581 2253 
L 3581 2253 
L 3684 2203 
Q 4103 1963 4119 1394 
L 4144 556 
Q 4150 350 4197 259 
Q 4244 169 4378 103 
L 4378 3 
L 3613 3 
Q 3588 59 3563 296 
Q 3538 534 3525 825 
L 3513 1188 
Q 3500 1616 3303 1798 
Q 3106 1981 2659 1981 
L 1184 1981 
L 1184 1981 
L 1184 0 
L 1184 0 
L 875 0 
L 563 0 
L 563 0 
z
M 1184 2519 
L 1184 2519 
L 2722 2519 
Q 3153 2519 3353 2708 
Q 3553 2897 3553 3306 
Q 3553 3703 3342 3887 
Q 3131 4072 2675 4072 
L 1184 4072 
L 1184 4072 
L 1184 2519 
z
" transform="scale(0.015625)"/>
       <path id="Helvetica-6f" d="M 1778 -91 
Q 1084 -91 654 396 
Q 225 884 225 1675 
Q 225 2469 654 2956 
Q 1084 3444 1778 3444 
Q 2478 3444 2906 2956 
Q 3334 2469 3334 1675 
Q 3334 884 2906 396 
Q 2478 -91 1778 -91 
L 1778 -91 
z
M 1778 394 
Q 2222 394 2484 741 
Q 2747 1088 2747 1675 
Q 2747 2263 2484 2611 
Q 2222 2959 1778 2959 
Q 1334 2959 1073 2611 
Q 813 2263 813 1675 
Q 813 1088 1073 741 
Q 1334 394 1778 394 
L 1778 394 
z
" transform="scale(0.015625)"/>
       <path id="Helvetica-74" d="M 1644 3 
Q 1356 -41 1225 -41 
Q 856 -41 704 121 
Q 553 284 553 681 
L 553 2884 
L 553 2884 
L 91 2884 
L 91 3344 
L 553 3344 
L 553 3344 
L 553 4281 
L 1116 4281 
L 1116 3344 
L 1116 3344 
L 1644 3344 
L 1644 2884 
L 1116 2884 
L 1116 2884 
L 1116 681 
Q 1116 569 1205 503 
Q 1294 438 1444 438 
L 1644 438 
L 1644 3 
z
" transform="scale(0.015625)"/>
       <path id="Helvetica-61" d="M 1297 -91 
Q 806 -91 518 171 
Q 231 434 231 881 
Q 231 1331 501 1597 
Q 772 1863 1291 1928 
L 2056 2025 
Q 2150 2034 2234 2056 
Q 2344 2084 2403 2168 
Q 2463 2253 2463 2381 
L 2463 2409 
Q 2463 2678 2259 2829 
Q 2056 2981 1694 2981 
Q 1347 2981 1151 2820 
Q 956 2659 916 2341 
L 916 2341 
L 397 2341 
L 397 2341 
Q 438 2891 784 3167 
Q 1131 3444 1778 3444 
Q 2388 3444 2706 3180 
Q 3025 2916 3025 2409 
L 3025 572 
Q 3025 488 3076 436 
Q 3128 384 3216 384 
Q 3241 384 3289 390 
Q 3338 397 3394 409 
L 3394 3 
Q 3313 -28 3222 -47 
Q 3131 -66 3069 -66 
Q 2750 -66 2606 109 
Q 2513 225 2472 438 
L 2472 438 
Q 2409 359 2328 288 
Q 1906 -91 1297 -91 
z
M 2463 1325 
L 2463 1688 
L 2463 1688 
Q 2306 1613 2116 1584 
L 1600 1509 
Q 1194 1453 1006 1320 
Q 819 1188 819 959 
Q 819 678 972 526 
Q 1125 375 1406 375 
Q 1850 375 2156 616 
Q 2366 784 2434 997 
Q 2447 1038 2453 1125 
Q 2463 1216 2463 1325 
z
" transform="scale(0.015625)"/>
       <path id="Helvetica-69" d="M 434 0 
L 434 3344 
L 434 3344 
L 716 3344 
L 997 3344 
L 997 3344 
L 997 0 
L 997 0 
L 716 0 
L 434 0 
L 434 0 
z
M 428 4594 
L 1003 4594 
L 1003 3956 
L 428 3956 
L 428 4594 
z
" transform="scale(0.015625)"/>
       <path id="Helvetica-6e" d="M 416 0 
L 416 3344 
L 416 3344 
L 681 3344 
L 950 3344 
L 950 3344 
L 950 2850 
L 950 2850 
L 950 2850 
L 1075 3016 
Q 1441 3444 1991 3444 
Q 2544 3444 2844 3144 
Q 3144 2844 3144 2291 
L 3144 0 
L 3144 0 
L 2863 0 
L 2581 0 
L 2581 0 
L 2581 2100 
Q 2581 2541 2411 2736 
Q 2241 2931 1859 2931 
Q 1453 2931 1215 2623 
Q 978 2316 978 1791 
L 978 1791 
L 978 0 
L 978 0 
L 697 0 
L 416 0 
L 416 0 
z
" transform="scale(0.015625)"/>
       <path id="Helvetica-20" transform="scale(0.015625)"/>
       <path id="Helvetica-41" d="M 91 0 
L 1825 4594 
L 2178 4594 
L 2534 4594 
L 4184 0 
L 4184 0 
L 3850 0 
L 3516 0 
L 3516 0 
L 3050 1331 
L 3050 1331 
L 1213 1331 
L 1213 1331 
L 731 0 
L 731 0 
L 413 0 
L 91 0 
L 91 0 
z
M 2150 3919 
L 1413 1881 
L 1413 1881 
L 2859 1881 
L 2859 1881 
L 2150 3919 
L 2150 3919 
L 2150 3919 
z
" transform="scale(0.015625)"/>
       <path id="Helvetica-67" d="M 1641 -947 
Q 2125 -947 2378 -642 
Q 2631 -338 2631 247 
L 2631 356 
L 2628 353 
Q 2281 -91 1722 -91 
Q 1050 -91 653 411 
Q 256 913 256 1766 
Q 256 2519 647 2981 
Q 1038 3444 1669 3444 
Q 2272 3444 2625 2922 
L 2666 2863 
L 2666 2863 
L 2666 3344 
L 2666 3344 
L 3194 3344 
L 3194 247 
Q 3191 -600 2812 -1006 
Q 2434 -1413 1650 -1413 
Q 1081 -1413 747 -1150 
Q 413 -888 344 -388 
L 344 -388 
L 919 -388 
L 919 -388 
Q 969 -656 1158 -801 
Q 1347 -947 1641 -947 
z
M 1750 2931 
Q 1278 2931 1061 2631 
Q 844 2331 844 1678 
Q 844 1063 1080 730 
Q 1316 397 1750 397 
Q 2159 397 2409 703 
Q 2659 1009 2659 1513 
Q 2659 2222 2432 2576 
Q 2206 2931 1750 2931 
z
" transform="scale(0.015625)"/>
       <path id="Helvetica-6c" d="M 428 0 
L 428 4594 
L 428 4594 
L 709 4594 
L 991 4594 
L 991 4594 
L 991 0 
L 991 0 
L 709 0 
L 428 0 
L 428 0 
z
" transform="scale(0.015625)"/>
       <path id="Helvetica-65" d="M 1778 -91 
Q 1069 -91 662 359 
Q 256 809 256 1603 
Q 256 2447 686 2945 
Q 1116 3444 1841 3444 
Q 2497 3444 2900 2956 
Q 3303 2469 3303 1675 
L 3297 1475 
L 3297 1475 
L 853 1475 
L 853 1475 
Q 888 975 1081 713 
Q 1319 394 1831 394 
Q 2153 394 2393 575 
Q 2634 756 2688 1038 
L 2688 1038 
L 3244 1038 
L 3244 1038 
Q 3119 488 2744 198 
Q 2369 -91 1778 -91 
z
M 2716 1928 
L 2716 1928 
Q 2691 2394 2484 2653 
Q 2256 2941 1816 2941 
Q 1372 2941 1106 2609 
Q 897 2350 853 1928 
L 853 1928 
L 2716 1928 
z
" transform="scale(0.015625)"/>
       <path id="Helvetica-28" d="M 434 1688 
Q 434 2469 696 3189 
Q 959 3909 1528 4694 
L 1913 4694 
Q 1456 3891 1245 3169 
Q 1034 2447 1034 1688 
Q 1034 922 1245 200 
Q 1456 -522 1913 -1322 
L 1528 -1322 
Q 959 -538 697 184 
Q 434 906 434 1688 
z
" transform="scale(0.015625)"/>
       <path id="Helvetica-64" d="M 1691 -91 
Q 1019 -91 622 411 
Q 225 913 225 1766 
Q 225 2519 609 2981 
Q 994 3444 1613 3444 
Q 2228 3444 2588 2922 
L 2631 2859 
L 2631 2859 
L 2631 4594 
L 2631 4594 
L 2913 4594 
L 3194 4594 
L 3194 4594 
L 3194 0 
L 3194 0 
L 2934 0 
L 2672 0 
L 2672 0 
L 2672 456 
L 2672 456 
L 2600 353 
Q 2253 -91 1691 -91 
z
M 1722 2938 
Q 1250 2938 1031 2636 
Q 813 2334 813 1678 
Q 813 1059 1048 725 
Q 1284 391 1722 391 
Q 2131 391 2381 698 
Q 2631 1006 2631 1513 
Q 2631 2197 2395 2567 
Q 2159 2938 1722 2938 
z
" transform="scale(0.015625)"/>
       <path id="Helvetica-72" d="M 494 0 
L 494 3344 
L 494 3344 
L 759 3344 
L 1028 3344 
L 1028 3344 
L 1028 2772 
L 1028 2772 
L 1028 2772 
Q 1100 2906 1181 3016 
Q 1500 3444 1966 3444 
Q 2044 3444 2125 3416 
L 2125 2841 
L 2009 2844 
Q 1553 2844 1304 2570 
Q 1056 2297 1056 1791 
L 1056 1791 
L 1056 0 
L 1056 0 
L 775 0 
L 494 0 
L 494 0 
z
" transform="scale(0.015625)"/>
       <path id="Helvetica-73" d="M 2331 2375 
L 2331 2375 
Q 2306 2653 2104 2806 
Q 1903 2959 1563 2959 
Q 1213 2959 1030 2837 
Q 847 2716 847 2481 
Q 847 2303 975 2213 
Q 1103 2122 1484 2031 
L 2066 1894 
Q 2553 1775 2763 1566 
Q 2969 1359 2969 988 
Q 2969 491 2611 200 
Q 2253 -91 1644 -91 
Q 938 -91 591 189 
Q 244 469 206 1069 
L 206 1069 
L 747 1069 
L 747 1069 
Q 788 713 998 553 
Q 1209 394 1644 394 
Q 2022 394 2217 537 
Q 2413 681 2413 956 
Q 2413 1131 2284 1222 
Q 2156 1313 1769 1403 
L 1188 1541 
Q 716 1653 516 1856 
Q 316 2056 316 2419 
Q 316 2891 652 3167 
Q 988 3444 1563 3444 
Q 2147 3444 2492 3159 
Q 2838 2875 2859 2375 
L 2859 2375 
L 2331 2375 
z
" transform="scale(0.015625)"/>
       <path id="Helvetica-29" d="M 1697 1684 
Q 1697 903 1434 182 
Q 1172 -538 603 -1322 
L 219 -1322 
Q 675 -519 886 203 
Q 1097 925 1097 1684 
Q 1097 2450 886 3172 
Q 675 3894 219 4694 
L 603 4694 
Q 1172 3909 1434 3188 
Q 1697 2466 1697 1684 
z
" transform="scale(0.015625)"/>
      </defs>
      <use xlink:href="#Helvetica-52"/>
      <use xlink:href="#Helvetica-6f" x="72.216797"/>
      <use xlink:href="#Helvetica-74" x="127.832031"/>
      <use xlink:href="#Helvetica-61" x="155.615234"/>
      <use xlink:href="#Helvetica-74" x="211.230469"/>
      <use xlink:href="#Helvetica-69" x="239.013672"/>
      <use xlink:href="#Helvetica-6f" x="261.230469"/>
      <use xlink:href="#Helvetica-6e" x="316.845703"/>
      <use xlink:href="#Helvetica-20" x="372.460938"/>
      <use xlink:href="#Helvetica-41" x="400.244141"/>
      <use xlink:href="#Helvetica-6e" x="466.943359"/>
      <use xlink:href="#Helvetica-67" x="522.558594"/>
      <use xlink:href="#Helvetica-6c" x="578.173828"/>
      <use xlink:href="#Helvetica-65" x="600.390625"/>
      <use xlink:href="#Helvetica-20" x="656.005859"/>
      <use xlink:href="#Helvetica-28" x="683.789062"/>
      <use xlink:href="#Helvetica-64" x="717.089844"/>
      <use xlink:href="#Helvetica-65" x="772.705078"/>
      <use xlink:href="#Helvetica-67" x="828.320312"/>
      <use xlink:href="#Helvetica-72" x="883.935547"/>
      <use xlink:href="#Helvetica-65" x="917.236328"/>
      <use xlink:href="#Helvetica-65" x="972.851562"/>
      <use xlink:href="#Helvetica-73" x="1028.466797"/>
      <use xlink:href="#Helvetica-29" x="1078.466797"/>
     </g>
    </g>
   </g>
   <g id="matplotlib.axis_2">
    <g id="ytick_1">
     <g id="line2d_9">
      <defs>
       <path id="m4e0f0df303" d="M 0 0 
L -3.5 0 
" style="stroke: #000000; stroke-width: 0.8"/>
      </defs>
      <g>
       <use xlink:href="#m4e0f0df303" x="90" y="384.48" style="stroke: #000000; stroke-width: 0.8"/>
      </g>
     </g>
     <g id="text_10">
      <!-- 0 -->
      <g transform="translate(77.439063 388.069062)scale(0.1 -0.1)">
       <use xlink:href="#Helvetica-30"/>
      </g>
     </g>
    </g>
    <g id="ytick_2">
     <g id="line2d_10">
      <g>
       <use xlink:href="#m4e0f0df303" x="90" y="347.52" style="stroke: #000000; stroke-width: 0.8"/>
      </g>
     </g>
     <g id="text_11">
      <!-- 5 -->
      <g transform="translate(77.439063 351.109062)scale(0.1 -0.1)">
       <use xlink:href="#Helvetica-35"/>
      </g>
     </g>
    </g>
    <g id="ytick_3">
     <g id="line2d_11">
      <g>
       <use xlink:href="#m4e0f0df303" x="90" y="310.56" style="stroke: #000000; stroke-width: 0.8"/>
      </g>
     </g>
     <g id="text_12">
      <!-- 10 -->
      <g transform="translate(71.878125 314.149063)scale(0.1 -0.1)">
       <use xlink:href="#Helvetica-31"/>
       <use xlink:href="#Helvetica-30" x="55.615234"/>
      </g>
     </g>
    </g>
    <g id="ytick_4">
     <g id="line2d_12">
      <g>
       <use xlink:href="#m4e0f0df303" x="90" y="273.6" style="stroke: #000000; stroke-width: 0.8"/>
      </g>
     </g>
     <g id="text_13">
      <!-- 15 -->
      <g transform="translate(71.878125 277.189062)scale(0.1 -0.1)">
       <use xlink:href="#Helvetica-31"/>
       <use xlink:href="#Helvetica-35" x="55.615234"/>
      </g>
     </g>
    </g>
    <g id="ytick_5">
     <g id="line2d_13">
      <g>
       <use xlink:href="#m4e0f0df303" x="90" y="236.64" style="stroke: #000000; stroke-width: 0.8"/>
      </g>
     </g>
     <g id="text_14">
      <!-- 20 -->
      <g transform="translate(71.878125 240.229062)scale(0.1 -0.1)">
       <use xlink:href="#Helvetica-32"/>
       <use xlink:href="#Helvetica-30" x="55.615234"/>
      </g>
     </g>
    </g>
    <g id="ytick_6">
     <g id="line2d_14">
      <g>
       <use xlink:href="#m4e0f0df303" x="90" y="199.68" style="stroke: #000000; stroke-width: 0.8"/>
      </g>
     </g>
     <g id="text_15">
      <!-- 25 -->
      <g transform="translate(71.878125 203.269062)scale(0.1 -0.1)">
       <use xlink:href="#Helvetica-32"/>
       <use xlink:href="#Helvetica-35" x="55.615234"/>
      </g>
     </g>
    </g>
    <g id="ytick_7">
     <g id="line2d_15">
      <g>
       <use xlink:href="#m4e0f0df303" x="90" y="162.72" style="stroke: #000000; stroke-width: 0.8"/>
      </g>
     </g>
     <g id="text_16">
      <!-- 30 -->
      <g transform="translate(71.878125 166.309062)scale(0.1 -0.1)">
       <use xlink:href="#Helvetica-33"/>
       <use xlink:href="#Helvetica-30" x="55.615234"/>
      </g>
     </g>
    </g>
    <g id="ytick_8">
     <g id="line2d_16">
      <g>
       <use xlink:href="#m4e0f0df303" x="90" y="125.76" style="stroke: #000000; stroke-width: 0.8"/>
      </g>
     </g>
     <g id="text_17">
      <!-- 35 -->
      <g transform="translate(71.878125 129.349063)scale(0.1 -0.1)">
       <use xlink:href="#Helvetica-33"/>
       <use xlink:href="#Helvetica-35" x="55.615234"/>
      </g>
     </g>
    </g>
    <g id="ytick_9">
     <g id="line2d_17">
      <g>
       <use xlink:href="#m4e0f0df303" x="90" y="88.8" style="stroke: #000000; stroke-width: 0.8"/>
      </g>
     </g>
     <g id="text_18">
      <!-- 40 -->
      <g transform="translate(71.878125 92.389062)scale(0.1 -0.1)">
       <defs>
        <path id="Helvetica-34" d="M 2144 1078 
L 159 1078 
L 159 1341 
L 159 1603 
L 2241 4497 
L 2475 4497 
L 2709 4497 
L 2709 1559 
L 2709 1559 
L 3347 1559 
L 3347 1078 
L 2709 1078 
L 2709 1078 
L 2709 0 
L 2144 0 
L 2144 1078 
L 2144 1078 
z
M 2144 1559 
L 2144 1559 
L 2144 3613 
L 2144 3613 
L 2144 3613 
L 709 1603 
L 678 1559 
L 678 1559 
L 2144 1559 
z
" transform="scale(0.015625)"/>
       </defs>
       <use xlink:href="#Helvetica-34"/>
       <use xlink:href="#Helvetica-30" x="55.615234"/>
      </g>
     </g>
    </g>
    <g id="ytick_10">
     <g id="line2d_18">
      <g>
       <use xlink:href="#m4e0f0df303" x="90" y="51.84" style="stroke: #000000; stroke-width: 0.8"/>
      </g>
     </g>
     <g id="text_19">
      <!-- 45 -->
      <g transform="translate(71.878125 55.429062)scale(0.1 -0.1)">
       <use xlink:href="#Helvetica-34"/>
       <use xlink:href="#Helvetica-35" x="55.615234"/>
      </g>
     </g>
    </g>
    <g id="text_20">
     <!-- Direction Error (degrees) -->
     <g transform="translate(65.670312 273.173281)rotate(-90)scale(0.1 -0.1)">
      <defs>
       <path id="Helvetica-44" d="M 519 0 
L 519 4594 
L 519 4594 
L 828 4594 
L 828 4594 
L 2406 4594 
Q 3281 4594 3798 3970 
Q 4316 3347 4316 2294 
Q 4316 1244 3786 622 
Q 3256 0 2356 0 
L 828 0 
L 828 0 
L 519 0 
L 519 0 
z
M 1141 531 
L 1141 531 
L 2278 531 
Q 2947 531 3311 990 
Q 3675 1450 3675 2294 
Q 3675 3141 3325 3602 
Q 2975 4063 2331 4063 
L 1141 4063 
L 1141 4063 
L 1141 531 
z
" transform="scale(0.015625)"/>
       <path id="Helvetica-63" d="M 3053 1203 
L 3053 1203 
Q 2966 572 2606 240 
Q 2247 -91 1650 -91 
Q 984 -91 587 387 
Q 191 866 191 1675 
Q 191 2484 602 2964 
Q 1013 3444 1706 3444 
Q 2309 3444 2668 3114 
Q 3028 2784 3053 2206 
L 3053 2206 
L 2513 2206 
L 2513 2206 
Q 2478 2566 2262 2762 
Q 2047 2959 1688 2959 
Q 1263 2959 1020 2617 
Q 778 2275 778 1675 
Q 778 1038 1003 716 
Q 1228 394 1672 394 
Q 2000 394 2220 605 
Q 2441 816 2513 1203 
L 2513 1203 
L 3053 1203 
z
" transform="scale(0.015625)"/>
       <path id="Helvetica-45" d="M 550 0 
L 550 0 
L 550 4594 
L 550 4594 
L 3909 4594 
L 3909 4594 
L 3909 4319 
L 3909 4044 
L 3909 4044 
L 1172 4044 
L 1172 4044 
L 1172 2641 
L 1172 2641 
L 3672 2641 
L 3672 2366 
L 3672 2091 
L 3672 2091 
L 1172 2091 
L 1172 2091 
L 1172 550 
L 1172 550 
L 3944 550 
L 3944 550 
L 3944 275 
L 3944 0 
L 3944 0 
L 550 0 
z
" transform="scale(0.015625)"/>
      </defs>
      <use xlink:href="#Helvetica-44"/>
      <use xlink:href="#Helvetica-69" x="72.216797"/>
      <use xlink:href="#Helvetica-72" x="94.433594"/>
      <use xlink:href="#Helvetica-65" x="127.734375"/>
      <use xlink:href="#Helvetica-63" x="183.349609"/>
      <use xlink:href="#Helvetica-74" x="233.349609"/>
      <use xlink:href="#Helvetica-69" x="261.132812"/>
      <use xlink:href="#Helvetica-6f" x="283.349609"/>
      <use xlink:href="#Helvetica-6e" x="338.964844"/>
      <use xlink:href="#Helvetica-20" x="394.580078"/>
      <use xlink:href="#Helvetica-45" x="422.363281"/>
      <use xlink:href="#Helvetica-72" x="489.0625"/>
      <use xlink:href="#Helvetica-72" x="522.363281"/>
      <use xlink:href="#Helvetica-6f" x="555.664062"/>
      <use xlink:href="#Helvetica-72" x="611.279297"/>
      <use xlink:href="#Helvetica-20" x="644.580078"/>
      <use xlink:href="#Helvetica-28" x="672.363281"/>
      <use xlink:href="#Helvetica-64" x="705.664062"/>
      <use xlink:href="#Helvetica-65" x="761.279297"/>
      <use xlink:href="#Helvetica-67" x="816.894531"/>
      <use xlink:href="#Helvetica-72" x="872.509766"/>
      <use xlink:href="#Helvetica-65" x="905.810547"/>
      <use xlink:href="#Helvetica-65" x="961.425781"/>
      <use xlink:href="#Helvetica-73" x="1017.041016"/>
      <use xlink:href="#Helvetica-29" x="1067.041016"/>
     </g>
    </g>
   </g>
   <g id="line2d_19">
    <path d="M 115.363636 384.48 
L 122.409091 345.189337 
L 129.454545 311.706105 
L 136.5 288.023419 
L 143.545455 275.904918 
L 150.590909 275.686643 
L 157.636364 287.380298 
L 164.681818 311.661205 
L 171.727273 347.52 
L 178.772727 384.48 
L 185.818182 347.52 
L 192.863636 311.661205 
L 199.909091 287.380298 
L 206.954545 275.686643 
L 214 275.904918 
L 221.045455 288.023419 
L 228.090909 311.706105 
L 235.136364 345.189337 
L 242.181818 384.48 
L 249.227273 345.189337 
L 256.272727 311.706105 
L 263.318182 288.023419 
L 270.363636 275.904918 
L 277.409091 275.686643 
L 284.454545 287.380298 
L 291.5 311.661205 
L 298.545455 347.52 
L 305.590909 384.48 
L 312.636364 347.52 
L 319.681818 311.661205 
L 326.727273 287.380298 
L 333.772727 275.686643 
L 340.818182 275.904918 
L 347.863636 288.023419 
L 354.909091 311.706105 
L 361.954545 345.189337 
L 369 384.48 
L 376.045455 345.189337 
L 383.090909 311.706105 
L 390.136364 288.023419 
L 397.181818 275.904918 
L 404.227273 275.686643 
L 411.272727 287.380298 
L 418.318182 311.661205 
L 425.363636 347.52 
L 432.409091 384.48 
L 439.454545 347.52 
L 446.5 311.661205 
L 453.545455 287.380298 
L 460.590909 275.686643 
L 467.636364 275.904918 
L 474.681818 288.023419 
L 481.727273 311.706105 
L 488.772727 345.189337 
L 495.818182 384.48 
L 502.863636 345.189337 
L 509.909091 311.706105 
L 516.954545 288.023419 
L 524 275.904918 
L 531.045455 275.686643 
L 538.090909 287.380298 
L 545.136364 311.661205 
L 552.181818 347.52 
L 559.227273 384.48 
L 566.272727 347.52 
L 573.318182 311.661205 
L 580.363636 287.380298 
L 587.409091 275.686643 
L 594.454545 275.904918 
L 601.5 288.023419 
L 608.545455 311.706105 
L 615.590909 345.189337 
L 622.636364 384.48 
" clip-path="url(#p56d58a3823)" style="fill: none; stroke: #1f77b4; stroke-width: 1.5; stroke-linecap: square"/>
   </g>
   <g id="patch_3">
    <path d="M 90 384.48 
L 90 51.84 
" style="fill: none; stroke: #000000; stroke-width: 0.8; stroke-linejoin: miter; stroke-linecap: square"/>
   </g>
   <g id="patch_4">
    <path d="M 648 384.48 
L 648 51.84 
" style="fill: none; stroke: #000000; stroke-width: 0.8; stroke-linejoin: miter; stroke-linecap: square"/>
   </g>
   <g id="patch_5">
    <path d="M 90 384.48 
L 648 384.48 
" style="fill: none; stroke: #000000; stroke-width: 0.8; stroke-linejoin: miter; stroke-linecap: square"/>
   </g>
   <g id="patch_6">
    <path d="M 90 51.84 
L 648 51.84 
" style="fill: none; stroke: #000000; stroke-width: 0.8; stroke-linejoin: miter; stroke-linecap: square"/>
   </g>
   <g id="text_21">
    <!-- Direction Error vs. Rotation Angle -->
    <g transform="translate(279.968437 45.84)scale(0.12 -0.12)">
     <defs>
      <path id="Helvetica-76" d="M 50 3344 
L 50 3344 
L 378 3344 
L 706 3344 
L 706 3344 
L 1603 606 
L 1603 606 
L 1603 606 
L 2528 3344 
L 2528 3344 
L 2838 3344 
L 3150 3344 
L 3150 3344 
L 1903 0 
L 1603 0 
L 1300 0 
L 50 3344 
z
" transform="scale(0.015625)"/>
      <path id="Helvetica-2e" d="M 556 678 
L 1225 678 
L 1225 0 
L 556 0 
L 556 678 
z
" transform="scale(0.015625)"/>
     </defs>
     <use xlink:href="#Helvetica-44"/>
     <use xlink:href="#Helvetica-69" x="72.216797"/>
     <use xlink:href="#Helvetica-72" x="94.433594"/>
     <use xlink:href="#Helvetica-65" x="127.734375"/>
     <use xlink:href="#Helvetica-63" x="183.349609"/>
     <use xlink:href="#Helvetica-74" x="233.349609"/>
     <use xlink:href="#Helvetica-69" x="261.132812"/>
     <use xlink:href="#Helvetica-6f" x="283.349609"/>
     <use xlink:href="#Helvetica-6e" x="338.964844"/>
     <use xlink:href="#Helvetica-20" x="394.580078"/>
     <use xlink:href="#Helvetica-45" x="422.363281"/>
     <use xlink:href="#Helvetica-72" x="489.0625"/>
     <use xlink:href="#Helvetica-72" x="522.363281"/>
     <use xlink:href="#Helvetica-6f" x="555.664062"/>
     <use xlink:href="#Helvetica-72" x="611.279297"/>
     <use xlink:href="#Helvetica-20" x="644.580078"/>
     <use xlink:href="#Helvetica-76" x="672.363281"/>
     <use xlink:href="#Helvetica-73" x="722.363281"/>
     <use xlink:href="#Helvetica-2e" x="772.363281"/>
     <use xlink:href="#Helvetica-20" x="800.146484"/>
     <use xlink:href="#Helvetica-52" x="827.929688"/>
     <use xlink:href="#Helvetica-6f" x="900.146484"/>
     <use xlink:href="#Helvetica-74" x="955.761719"/>
     <use xlink:href="#Helvetica-61" x="983.544922"/>
     <use xlink:href="#Helvetica-74" x="1039.160156"/>
     <use xlink:href="#Helvetica-69" x="1066.943359"/>
     <use xlink:href="#Helvetica-6f" x="1089.160156"/>
     <use xlink:href="#Helvetica-6e" x="1144.775391"/>
     <use xlink:href="#Helvetica-20" x="1200.390625"/>
     <use xlink:href="#Helvetica-41" x="1228.173828"/>
     <use xlink:href="#Helvetica-6e" x="1294.873047"/>
     <use xlink:href="#Helvetica-67" x="1350.488281"/>
     <use xlink:href="#Helvetica-6c" x="1406.103516"/>
     <use xlink:href="#Helvetica-65" x="1428.320312"/>
    </g>
   </g>
  </g>
 </g>
 <defs>
  <clipPath id="p56d58a3823">
   <rect x="90" y="51.84" width="558" height="332.64"/>
  </clipPath>
 </defs>
</svg>
